<svg version="1.1" xmlns="http://www.w3.org/2000/svg" style="display: block;" viewBox="0 0 2048 2048" width="512" height="512" preserveAspectRatio="none">
<path transform="translate(0,0)" fill="rgb(0,0,0)" d="M 456.229 566.309 C 472.124 565.04 494.577 565.731 511.119 565.737 L 609.175 565.794 L 915.893 565.815 L 1357.75 565.799 L 1503.19 565.774 C 1528.87 565.767 1554.74 565.554 1580.39 565.945 C 1592.08 566.123 1602.16 567.862 1612.13 574.201 C 1622.53 580.806 1631.75 591.784 1633.5 604.261 C 1635.42 617.915 1634.85 634.425 1634.85 648.384 L 1634.84 719.642 L 1634.78 989.662 L 1634.79 1575.63 L 1634.82 1765.88 C 1634.85 1800.44 1635.01 1835.17 1634.71 1869.7 C 1634.62 1880.05 1633.03 1895.03 1626.73 1903.27 C 1617.43 1915.41 1607.28 1921.17 1592.65 1923.59 C 1575.93 1924.82 1551.61 1924.16 1534.47 1924.17 L 1433.91 1924.16 L 1117.81 1924.16 L 682.324 1924.15 L 540.122 1924.17 C 514.998 1924.18 489.676 1924.37 464.594 1924.03 C 452.998 1923.86 444.203 1922.27 434.369 1915.83 C 416.907 1904.4 413.407 1890.34 413.207 1870.58 C 413.104 1860.48 413.054 1849.9 413.051 1839.6 L 413.077 1772.08 L 413.082 1514.72 L 413.105 914.231 L 413.063 722.393 C 413.033 688.307 412.972 654.207 413.124 620.123 C 413.256 590.423 426.269 571.986 456.229 566.309 z M 743.417 1798.79 C 777.753 1795.45 793.939 1779.55 794.762 1744.4 C 795.335 1719.95 795.166 1695.54 795.165 1671.09 L 795.14 1536.87 L 795.139 1129.64 L 795.146 863.736 L 795.143 784.627 C 795.142 767.832 795.797 750.352 793.987 733.698 C 788.978 687.606 739.241 691.114 705.522 692.479 C 675.522 695.211 654.449 707.944 653.145 741.332 C 652.187 765.853 652.789 790.767 652.791 815.331 L 652.823 952.073 L 652.825 1366.29 L 652.834 1631.78 L 652.842 1711.23 C 652.844 1723.58 651.508 1748.6 654.283 1759.98 C 665.244 1804.93 707.813 1799.29 743.417 1798.79 z M 1343.12 1798.78 C 1374.3 1795.87 1393.4 1780.35 1394.63 1747.65 C 1395.53 1723.58 1395.17 1699.58 1395.17 1675.5 L 1395.13 1546.78 L 1395.14 1152.39 L 1395.15 871.524 L 1395.14 786.675 C 1395.14 743.098 1402.93 694.091 1340 692.294 C 1328.53 691.966 1317.12 692.042 1305.58 692.477 C 1275.27 695.182 1254.93 705.866 1253.22 740.229 C 1252.11 762.494 1252.79 785.276 1252.79 807.599 L 1252.82 928.226 L 1252.83 1301.78 L 1252.83 1606.13 L 1252.84 1702.04 C 1252.84 1729.12 1247.17 1769.41 1270.67 1787.81 C 1289.51 1802.56 1320.21 1799.12 1343.12 1798.78 z M 1042.95 1798.78 C 1075.71 1795.79 1093.66 1780.08 1094.72 1745.87 C 1095.51 1720.56 1095.17 1695.27 1095.17 1669.94 L 1095.13 1533.77 L 1095.14 1117.66 L 1095.14 857.98 L 1095.14 781.038 C 1095.14 736.92 1100.72 693.648 1038.73 692.237 C 1027.71 691.986 1016.59 692.027 1005.5 692.481 C 976.659 695.132 955.258 706.361 953.277 739.145 C 951.963 760.884 952.793 783.639 952.794 805.491 L 952.818 927.34 L 952.827 1304.59 L 952.832 1609.22 L 952.842 1704.62 C 952.845 1732.14 947.279 1768.85 971.115 1787.88 C 989.581 1802.62 1020.45 1799.14 1042.95 1798.78 z"/>
<path transform="translate(0,0)" fill="rgb(0,0,0)" d="M 822.527 124.339 C 871.409 122.441 926.585 124.479 976.029 123.979 C 1052.96 123.768 1129.98 124.148 1206.9 123.996 C 1246.5 123.917 1272.12 137.008 1270.64 181.198 C 1306.41 182.294 1343.18 181.82 1379.07 181.825 L 1549.85 181.805 L 1618.55 181.73 C 1633.69 181.698 1648.22 181.246 1663.38 182.711 C 1691.6 184.929 1708.47 207.025 1708.02 235.049 C 1706.99 298.355 1709.73 363.502 1706.84 426.653 C 1705.88 447.75 1684.73 466.433 1664.28 468.337 C 1646.8 469.965 1628.77 469.776 1610.47 469.763 L 1526.71 469.685 L 1228.25 469.709 L 646.534 469.71 L 474.167 469.725 C 444.318 469.73 413.333 470.632 383.541 468.537 C 373.607 467.839 360.942 461.054 353.797 453.929 C 336.428 436.608 340.561 410.122 340.098 387.938 C 340.292 338.069 339.575 287.961 340.021 238.112 C 340.583 175.337 385.678 181.655 431.177 181.717 L 515.322 181.834 C 601.487 181.872 691.122 180.546 776.919 181.95 C 777.061 149.877 788.494 129.334 822.527 124.339 z"/>
</svg>